<svg width="44" height="43" viewBox="0 0 44 43" fill="none" xmlns="http://www.w3.org/2000/svg">
<path d="M4.65466 38.3775C3.98931 38.374 3.35221 38.1081 2.88173 37.6376C2.41125 37.1671 2.14538 36.53 2.14185 35.8647V15.1978C2.14539 13.8197 2.69442 12.499 3.6689 11.5246C4.64338 10.5501 5.96404 10.001 7.34216 9.9975H31.8656C33.246 9.99749 34.5701 10.545 35.5475 11.5198C36.5249 12.4947 37.0758 13.8174 37.0793 15.1978V28.9712C37.0793 30.3517 36.5319 31.6758 35.557 32.6532C34.5822 33.6306 33.2595 34.1814 31.879 34.185H11.4272C11.1949 34.1869 10.9691 34.2621 10.7822 34.4L6.1731 37.8803C5.73362 38.2051 5.20111 38.3794 4.65466 38.3775ZM7.34216 12.685C6.67681 12.6885 6.03971 12.9544 5.56923 13.4249C5.09875 13.8954 4.83288 14.5325 4.82935 15.1978V35.5287L9.16966 32.25C9.82272 31.765 10.6137 31.5013 11.4272 31.4975H31.8656C32.5356 31.4975 33.1782 31.2313 33.6519 30.7576C34.1257 30.2838 34.3918 29.6413 34.3918 28.9712V15.1978C34.3883 14.5325 34.1224 13.8954 33.652 13.4249C33.1815 12.9544 32.5444 12.6885 31.879 12.685H7.34216Z" fill="#FB3640"/>
<path d="M24.905 23.5559C25.6472 23.5559 26.2488 22.9543 26.2488 22.2122C26.2488 21.4701 25.6472 20.8684 24.905 20.8684C24.1629 20.8684 23.5613 21.4701 23.5613 22.2122C23.5613 22.9543 24.1629 23.5559 24.905 23.5559Z" fill="white"/>
<path d="M19.6912 23.5559C20.4333 23.5559 21.0349 22.9543 21.0349 22.2122C21.0349 21.4701 20.4333 20.8684 19.6912 20.8684C18.949 20.8684 18.3474 21.4701 18.3474 22.2122C18.3474 22.9543 18.949 23.5559 19.6912 23.5559Z" fill="white"/>
<path d="M14.3162 23.5559C15.0583 23.5559 15.6599 22.9543 15.6599 22.2122C15.6599 21.4701 15.0583 20.8684 14.3162 20.8684C13.574 20.8684 12.9724 21.4701 12.9724 22.2122C12.9724 22.9543 13.574 23.5559 14.3162 23.5559Z" fill="white"/>
<path d="M41.1106 24.7787C40.7542 24.7787 40.4124 24.6372 40.1604 24.3852C39.9084 24.1332 39.7668 23.7914 39.7668 23.435V9.82281C39.7633 9.15746 39.4974 8.52036 39.027 8.04988C38.5565 7.5794 37.9194 7.31353 37.254 7.31H10.2043C9.84796 7.31 9.50617 7.16842 9.25417 6.91642C9.00217 6.66442 8.8606 6.32263 8.8606 5.96625C8.8606 5.60986 9.00217 5.26807 9.25417 5.01607C9.50617 4.76407 9.84796 4.6225 10.2043 4.6225H37.254C38.6322 4.62604 39.9528 5.17507 40.9273 6.14955C41.9018 7.12403 42.4508 8.44469 42.4543 9.82281V23.435C42.4543 23.7914 42.3128 24.1332 42.0608 24.3852C41.8088 24.6372 41.467 24.7787 41.1106 24.7787Z" fill="white"/>
</svg>
