<svg id="Layer_1" enable-background="new 0 0 64 64" height="512" viewBox="0 0 64 64" width="512" xmlns="http://www.w3.org/2000/svg"><path d="m18.5 3.9h19.1c.3 0 .6.2.8.4l5.7 6.5c.4.4.3 1-.1 1.4s-1 .3-1.4-.1l-4-4.6v8.5c0 .3 0 .5.1.8.1.5-.2 1-.8 1.2-.5.1-1-.2-1.2-.8-.1-.4-.1-.8-.1-1.2v-10.1h-18.1c-1.3 0-2.4.6-3.3 1.5-.9 1-1.4 2.4-1.4 3.9v30.7c0 .6-.5 1-1 1-.6 0-1-.5-1-1v-30.7c0-2 .7-3.9 1.9-5.2 1.3-1.4 3-2.2 4.8-2.2zm-12.9 56c-.4.4-1 .4-1.4 0s-.4-1 0-1.4c18-18.2 36.1-36.3 54.2-54.4.4-.4 1-.4 1.4 0s.4 1 0 1.4l-10.7 10.8c.9 1 1.9 2.1 2.8 3.1.2.2.3.4.3.7v32.5c0 2-.7 3.9-1.9 5.2-1.2 1.4-2.9 2.2-4.8 2.2h-27c-1.9 0-3.5-.9-4.8-2.2-1-1.2-1.7-2.7-1.9-4.3zm42.1-42.2-1.4 1.4h2.6zm-3.4 3.4-30.5 30.5v1.1c0 1.5.5 2.9 1.4 3.9s2 1.6 3.3 1.6h26.9c1.3 0 2.4-.6 3.3-1.6s1.4-2.4 1.4-3.9v-31.6z"/></svg>