<svg width="511" height="512" viewBox="0 0 511 512" fill="none" xmlns="http://www.w3.org/2000/svg">
<g clip-path="url(#clip0_1480_2263)">
<path d="M235.793 347.268C239.695 343.357 239.695 337.029 235.793 333.119C231.887 329.221 225.559 329.221 221.648 333.119C217.75 337.029 217.75 343.357 221.648 347.268C225.559 351.166 231.887 351.166 235.793 347.268Z" fill="black"/>
<path d="M188.449 109.969C188.449 170.605 237.781 219.941 298.418 219.941C359.055 219.941 408.387 170.605 408.387 109.969C408.387 49.332 359.055 0 298.418 0C237.781 0 188.449 49.332 188.449 109.969V109.969ZM388.395 109.969C388.395 159.582 348.031 199.945 298.418 199.945C248.805 199.945 208.441 159.582 208.441 109.969C208.441 60.3594 248.805 19.9961 298.418 19.9961C348.031 19.9961 388.395 60.3594 388.395 109.969Z" fill="black"/>
<path d="M115.651 509.044C119.526 512.95 125.835 512.993 129.761 509.126L178.229 461.376C186.464 453.142 188.968 440.95 185.347 430.353L195.772 420.298C201.386 414.876 208.776 411.888 216.589 411.888H349.491C373.069 411.888 395.354 402.833 412.249 386.392C412.944 385.716 406.972 392.751 502.917 278.079C517.147 261.243 515.019 235.962 498.167 221.716C481.421 207.603 456.335 209.63 442.065 226.177L383.073 286.81C375.624 277.642 364.265 271.927 351.991 271.927H240.511C224.647 265.29 207.815 261.931 190.448 261.931C142.308 261.931 100.272 284.165 77.7139 325.853C68.21 324.052 58.1865 326.927 50.9756 334.138L3.417 381.837C-0.465814 385.732 -0.473626 392.032 3.40137 395.939L115.651 509.044ZM190.444 281.923C205.757 281.923 220.562 285.005 234.456 291.083C235.722 291.638 237.085 291.923 238.464 291.923H351.991C362.831 291.923 371.987 300.763 371.987 311.915C371.987 322.942 363.019 331.911 351.991 331.911H270.425C264.905 331.911 260.429 336.388 260.429 341.907C260.429 347.431 264.905 351.903 270.425 351.903H351.991C374.042 351.903 391.979 333.966 391.979 311.915C391.979 310.157 391.854 308.415 391.628 306.689C448.694 248.028 456.741 239.786 457.085 239.376C464.21 230.966 476.858 229.899 485.272 236.993C493.694 244.114 494.761 256.755 487.616 265.212L397.948 372.407C384.854 384.978 367.663 391.896 349.491 391.896H216.589C203.565 391.896 191.237 396.876 181.886 405.911L173.39 414.11L95.0693 335.794C113.374 301.454 147.722 281.923 190.444 281.923V281.923ZM65.124 348.267C68.4209 344.97 73.4834 344.376 77.5029 346.86C79.2334 347.915 74.2646 343.392 164.093 433.095C168.089 437.091 167.874 443.458 164.147 447.185L122.827 487.892L24.5967 388.911L65.124 348.267Z" fill="black"/>
<path d="M286.422 49.9844V61.6992C274.786 65.8242 266.426 76.9375 266.426 89.9727C266.426 106.508 279.879 119.965 296.418 119.965C301.93 119.965 306.414 124.449 306.414 129.961C306.414 135.473 301.93 139.957 296.418 139.957C292.149 139.957 287.536 137.273 283.438 132.395C279.883 128.168 273.578 127.625 269.352 131.176C265.125 134.73 264.578 141.035 268.133 145.262C273.477 151.617 279.762 156.047 286.422 158.281V169.949C286.422 175.473 290.899 179.945 296.418 179.945C301.938 179.945 306.414 175.473 306.414 169.949V158.234C318.051 154.105 326.411 142.992 326.411 129.961C326.411 113.422 312.957 99.9688 296.418 99.9688C290.907 99.9688 286.422 95.4844 286.422 89.9727C286.422 84.4609 290.907 79.9727 296.418 79.9727C299.961 79.9727 303.7 81.7812 307.231 85.1992C311.2 89.0391 317.528 88.9336 321.368 84.9688C325.207 81 325.102 74.6719 321.137 70.832C316.063 65.9219 310.985 63.1445 306.414 61.6289V49.9844C306.414 44.4609 301.938 39.9844 296.418 39.9844C290.899 39.9844 286.422 44.4609 286.422 49.9844V49.9844Z" fill="black"/>
</g>
<defs>
<clipPath id="clip0_1480_2263">
<rect width="511" height="512" fill="white"/>
</clipPath>
</defs>
</svg>
