<svg width="69" height="69" viewBox="0 0 69 69" fill="none" xmlns="http://www.w3.org/2000/svg">
<g clip-path="url(#clip0_1745_1226)">
<path d="M68.1574 13.2628C67.4484 12.6956 66.4678 12.6114 65.6721 13.0493L60.9471 15.6513C55.0682 6.61812 45.0259 1.1062 34.1311 1.1062C16.489 1.1062 2.13593 15.4591 2.13593 33.1014C2.13593 35.0326 3.70159 36.5981 5.63267 36.5981C7.56409 36.5981 9.12941 35.0326 9.12941 33.1014C9.12941 19.3153 20.3452 8.09969 34.1311 8.09969C42.4696 8.09969 50.1721 12.2309 54.8028 19.0345L50.377 21.4716C49.5816 21.9095 49.1285 22.7834 49.2294 23.6859C49.3292 24.5882 49.9635 25.3414 50.8358 25.5941L62.6946 29.0305C62.8995 29.0899 63.1095 29.1191 63.3191 29.1191C63.6943 29.1191 64.0673 29.0251 64.4017 28.8408C64.9229 28.5535 65.3091 28.071 65.4752 27.4993L68.9115 15.6404C69.1638 14.7683 68.8664 13.83 68.1574 13.2628Z" fill="black"/>
<path d="M63.3672 32.4021C61.4358 32.4021 59.8705 33.9676 59.8705 35.8988C59.8705 49.6851 48.6549 60.9006 34.8686 60.9006C26.5303 60.9006 18.8277 56.7693 14.1971 49.9657L18.6229 47.5287C19.4183 47.0909 19.8714 46.217 19.7709 45.3145C19.6709 44.4122 19.0368 43.6588 18.1645 43.4065L6.30582 39.9701C6.10091 39.9105 5.89093 39.8815 5.6813 39.8815C5.3061 39.8815 4.93317 39.9753 4.59853 40.1598C4.07717 40.4471 3.69095 40.9294 3.52521 41.5013L0.0887851 53.36C-0.163855 54.2319 0.133543 55.1703 0.842508 55.7376C1.55147 56.3048 2.53213 56.3894 3.32782 55.9513L8.05279 53.3493C13.9315 62.3821 23.9738 67.894 34.8684 67.894C52.5106 67.894 66.8638 53.5411 66.8638 35.8988C66.864 33.9676 65.2981 32.4021 63.3672 32.4021Z" fill="black"/>
<path d="M47.9749 33.5251C49.3417 34.892 49.3417 37.108 47.9749 38.4749C46.608 39.8417 44.392 39.8417 43.0251 38.4749C41.6583 37.108 41.6583 34.892 43.0251 33.5251C44.392 32.1583 46.608 32.1583 47.9749 33.5251Z" fill="black"/>
<path d="M37.4749 33.5251C38.8418 34.892 38.8418 37.108 37.4749 38.4749C36.1081 39.8417 33.892 39.8417 32.5252 38.4749C31.1584 37.108 31.1584 34.892 32.5252 33.5251C33.892 32.1583 36.1081 32.1583 37.4749 33.5251Z" fill="black"/>
<path d="M26.9749 33.5251C28.3418 34.892 28.3418 37.108 26.9749 38.4749C25.6081 39.8417 23.392 39.8417 22.0252 38.4749C20.6584 37.108 20.6584 34.892 22.0252 33.5251C23.392 32.1583 25.6081 32.1583 26.9749 33.5251Z" fill="black"/>
</g>
<defs>
<clipPath id="clip0_1745_1226">
<rect width="69" height="69" fill="white"/>
</clipPath>
</defs>
</svg>
