<svg width="511" height="512" viewBox="0 0 511 512" fill="none" xmlns="http://www.w3.org/2000/svg">
<g clip-path="url(#clip0_1480_2314)">
<path d="M275.207 347.268C271.305 343.357 271.305 337.029 275.207 333.119C279.113 329.221 285.441 329.221 289.352 333.119C293.25 337.029 293.25 343.357 289.352 347.268C285.441 351.166 279.113 351.166 275.207 347.268Z" fill="black"/>
<path d="M322.551 109.969C322.551 170.605 273.219 219.941 212.582 219.941C151.945 219.941 102.613 170.605 102.613 109.969C102.613 49.332 151.945 0 212.582 0C273.219 0 322.551 49.332 322.551 109.969V109.969ZM122.605 109.969C122.605 159.582 162.969 199.945 212.582 199.945C262.195 199.945 302.559 159.582 302.559 109.969C302.559 60.3594 262.195 19.9961 212.582 19.9961C162.969 19.9961 122.605 60.3594 122.605 109.969Z" fill="black"/>
<path d="M395.349 509.044C391.474 512.95 385.165 512.993 381.239 509.126L332.771 461.376C324.536 453.142 322.032 440.95 325.653 430.353L315.228 420.298C309.614 414.876 302.224 411.888 294.411 411.888H161.509C137.931 411.888 115.646 402.833 98.751 386.392C98.0557 385.716 104.028 392.751 8.08301 278.079C-6.14746 261.243 -4.01855 235.962 12.833 221.716C29.5791 207.603 54.665 209.63 68.9346 226.177L127.927 286.81C135.376 277.642 146.735 271.927 159.009 271.927H270.489C286.353 265.29 303.185 261.931 320.552 261.931C368.692 261.931 410.728 284.165 433.286 325.853C442.79 324.052 452.813 326.927 460.024 334.138L507.583 381.837C511.466 385.732 511.474 392.032 507.599 395.939L395.349 509.044ZM320.556 281.923C305.243 281.923 290.438 285.005 276.544 291.083C275.278 291.638 273.915 291.923 272.536 291.923H159.009C148.169 291.923 139.013 300.763 139.013 311.915C139.013 322.942 147.981 331.911 159.009 331.911H240.575C246.095 331.911 250.571 336.388 250.571 341.907C250.571 347.431 246.095 351.903 240.575 351.903H159.009C136.958 351.903 119.021 333.966 119.021 311.915C119.021 310.157 119.146 308.415 119.372 306.689C62.3057 248.028 54.2588 239.786 53.915 239.376C46.79 230.966 34.1416 229.899 25.7275 236.993C17.3057 244.114 16.2393 256.755 23.3838 265.212L113.052 372.407C126.146 384.978 143.337 391.896 161.509 391.896H294.411C307.435 391.896 319.763 396.876 329.114 405.911L337.61 414.11L415.931 335.794C397.626 301.454 363.278 281.923 320.556 281.923V281.923ZM445.876 348.267C442.579 344.97 437.517 344.376 433.497 346.86C431.767 347.915 436.735 343.392 346.907 433.095C342.911 437.091 343.126 443.458 346.853 447.185L388.173 487.892L486.403 388.911L445.876 348.267Z" fill="black"/>
<path d="M224.578 49.9844V61.6992C236.214 65.8242 244.574 76.9375 244.574 89.9727C244.574 106.508 231.121 119.965 214.582 119.965C209.07 119.965 204.586 124.449 204.586 129.961C204.586 135.473 209.07 139.957 214.582 139.957C218.851 139.957 223.464 137.273 227.562 132.395C231.117 128.168 237.422 127.625 241.648 131.176C245.875 134.73 246.422 141.035 242.867 145.262C237.523 151.617 231.238 156.047 224.578 158.281V169.949C224.578 175.473 220.101 179.945 214.582 179.945C209.062 179.945 204.586 175.473 204.586 169.949V158.234C192.949 154.105 184.589 142.992 184.589 129.961C184.589 113.422 198.043 99.9688 214.582 99.9688C220.093 99.9688 224.578 95.4844 224.578 89.9727C224.578 84.4609 220.093 79.9727 214.582 79.9727C211.039 79.9727 207.3 81.7812 203.769 85.1992C199.8 89.0391 193.472 88.9336 189.632 84.9688C185.793 81 185.898 74.6719 189.863 70.832C194.937 65.9219 200.015 63.1445 204.586 61.6289V49.9844C204.586 44.4609 209.062 39.9844 214.582 39.9844C220.101 39.9844 224.578 44.4609 224.578 49.9844V49.9844Z" fill="black"/>
</g>
<defs>
<clipPath id="clip0_1480_2314">
<rect width="511" height="512" fill="white" transform="matrix(-1 0 0 1 511 0)"/>
</clipPath>
</defs>
</svg>
