<svg width="36" height="36" viewBox="0 0 36 36" fill="none" xmlns="http://www.w3.org/2000/svg">
<circle cx="18" cy="18" r="17.75" fill="#FAFAFA" stroke="#E0DCDC" stroke-width="0.5"/>
<path fill-rule="evenodd" clip-rule="evenodd" d="M12.8651 10.9948C13.8682 9.70157 15.4226 8.72363 17.5599 8.72363C19.6967 8.72363 21.251 9.7016 22.2542 10.9947C23.2415 12.2675 23.7011 13.8489 23.7011 15.1314C23.7011 15.4995 23.6899 15.7728 23.6815 15.9802C23.6797 16.0228 23.678 16.0627 23.6766 16.1C23.6684 16.323 23.67 16.4302 23.6872 16.5364C23.7262 16.7778 23.8497 17.0753 24.3432 18.1628C24.3481 18.1737 24.3528 18.1848 24.3571 18.1959C24.7136 19.1134 24.6339 19.9576 24.2099 20.6728C23.8052 21.3554 23.125 21.858 22.3898 22.2248C20.9197 22.9582 18.9762 23.2738 17.5599 23.2738C16.1431 23.2738 14.1994 22.9582 12.7292 22.2248C11.994 21.858 11.3139 21.3554 10.9094 20.6727C10.4854 19.9574 10.4059 19.1133 10.7626 18.1957C10.7669 18.1847 10.7716 18.1737 10.7765 18.1628C11.27 17.0753 11.3935 16.7778 11.4325 16.5364C11.4497 16.4302 11.4514 16.323 11.443 16.1C11.4416 16.0627 11.44 16.0228 11.4382 15.9802C11.4297 15.7728 11.4186 15.4995 11.4186 15.1314C11.4186 13.849 11.8779 12.2676 12.8651 10.9948V10.9948ZM13.8888 11.7887C13.0867 12.8229 12.714 14.1215 12.714 15.1314C12.714 15.4709 12.724 15.7162 12.7324 15.9227C12.7343 15.9672 12.736 16.01 12.7376 16.0515C12.7462 16.2812 12.7507 16.4998 12.7114 16.743C12.6384 17.1947 12.4165 17.6837 11.9726 18.6619L11.964 18.6809C11.749 19.2446 11.818 19.665 12.0238 20.0123C12.2509 20.3956 12.6864 20.7557 13.3075 21.0656C14.55 21.6854 16.282 21.9784 17.5599 21.9784C18.8372 21.9784 20.5691 21.6854 21.8115 21.0656C22.4327 20.7557 22.8682 20.3956 23.0955 20.0122C23.3014 19.6649 23.3704 19.2445 23.1557 18.6809L23.1471 18.6619C22.7032 17.6837 22.4813 17.1947 22.4083 16.743C22.369 16.4998 22.3735 16.2812 22.3821 16.0515C22.3837 16.0101 22.3854 15.9672 22.3872 15.9227C22.3957 15.7162 22.4056 15.4709 22.4056 15.1314C22.4056 14.1216 22.0329 12.8229 21.2307 11.7888C20.4441 10.775 19.2518 10.0191 17.5599 10.0191C15.8675 10.0191 14.6751 10.775 13.8888 11.7887V11.7887Z" fill="#292929"/>
<path fill-rule="evenodd" clip-rule="evenodd" d="M15.1332 24.4322C15.4 24.1939 15.8095 24.217 16.0478 24.4839C16.9163 25.4561 18.2093 25.4471 19.0722 24.4833C19.3107 24.2167 19.7202 24.1941 19.9868 24.4327C20.2533 24.6714 20.2759 25.0808 20.0373 25.3473C18.6646 26.8807 16.4702 26.9014 15.0816 25.3468C14.8433 25.08 14.8664 24.6706 15.1332 24.4322V24.4322Z" fill="#292929"/>
<circle cx="30.0003" cy="5.99982" r="3.81818" fill="#FCA120"/>
</svg>
