<svg height="512" viewBox="0 0 48 48" width="512" xmlns="http://www.w3.org/2000/svg"><g id="Deposit"><path d="m46.88 34.39a2.27 2.27 0 0 0 -2.88-1.39l-6.24 1.93c-1.58 1.44-2.18 1.07-13.76 1.07a1 1 0 0 1 0-2c12 0 11.59.23 12.47-.65a2.05 2.05 0 0 0 .53-1.35 2 2 0 0 0 -2-2h-10.7c-1.39 0-2.55-2-6.6-2h-6.7v10.42l1.29.73a27.78 27.78 0 0 0 24.38 1.65l9-3.63a2.26 2.26 0 0 0 1.21-2.78z"/><path d="m1 41h8v-15h-8zm3.08-4.38a1 1 0 1 1 1.63 1.09 1 1 0 0 1 -1.63-1.09z"/><path d="m31 25a10 10 0 1 0 -10-10 10 10 0 0 0 10 10zm1-9h-2a3 3 0 0 1 0-6v-1a1 1 0 0 1 2 0v1h2a1 1 0 0 1 0 2h-4a1 1 0 0 0 0 2h2a3 3 0 0 1 0 6v1a1 1 0 0 1 -2 0v-1h-2a1 1 0 0 1 0-2h4a1 1 0 0 0 0-2z"/></g></svg>