<svg width="37" height="36" viewBox="0 0 37 36" fill="none" xmlns="http://www.w3.org/2000/svg">
<circle cx="18.5718" cy="18" r="17.75" fill="#FAFAFA" stroke="#E0DCDC" stroke-width="0.5"/>
<path fill-rule="evenodd" clip-rule="evenodd" d="M14.4657 10.9948C15.4688 9.70157 17.0232 8.72363 19.1604 8.72363C21.2972 8.72363 22.8516 9.7016 23.8548 10.9947C24.8421 12.2675 25.3017 13.8489 25.3017 15.1314C25.3017 15.4995 25.2905 15.7728 25.2821 15.9802C25.2803 16.0228 25.2786 16.0627 25.2772 16.1C25.2689 16.323 25.2706 16.4302 25.2878 16.5364C25.3268 16.7778 25.4503 17.0753 25.9438 18.1628C25.9487 18.1737 25.9534 18.1848 25.9577 18.1959C26.3142 19.1134 26.2345 19.9576 25.8104 20.6728C25.4057 21.3554 24.7256 21.858 23.9904 22.2248C22.5202 22.9582 20.5768 23.2738 19.1604 23.2738C17.7436 23.2738 15.8 22.9582 14.3298 22.2248C13.5946 21.858 12.9145 21.3554 12.5099 20.6727C12.086 19.9574 12.0064 19.1133 12.3632 18.1957C12.3675 18.1847 12.3722 18.1737 12.3771 18.1628C12.8706 17.0753 12.9941 16.7778 13.0331 16.5364C13.0502 16.4302 13.0519 16.323 13.0436 16.1C13.0422 16.0627 13.0406 16.0228 13.0388 15.9802C13.0303 15.7728 13.0191 15.4995 13.0191 15.1314C13.0191 13.849 13.4785 12.2676 14.4657 10.9948V10.9948ZM15.4894 11.7887C14.6872 12.8229 14.3146 14.1215 14.3146 15.1314C14.3146 15.4709 14.3246 15.7162 14.333 15.9227C14.3348 15.9672 14.3366 16.01 14.3381 16.0515C14.3467 16.2812 14.3513 16.4998 14.312 16.743C14.239 17.1947 14.0171 17.6837 13.5732 18.6619L13.5646 18.6809C13.3496 19.2446 13.4186 19.665 13.6244 20.0123C13.8515 20.3956 14.2869 20.7557 14.9081 21.0656C16.1505 21.6854 17.8826 21.9784 19.1604 21.9784C20.4378 21.9784 22.1697 21.6854 23.4121 21.0656C24.0333 20.7557 24.4688 20.3956 24.6961 20.0122C24.902 19.6649 24.971 19.2445 24.7563 18.6809L24.7476 18.6619C24.3037 17.6837 24.0819 17.1947 24.0089 16.743C23.9696 16.4998 23.9741 16.2812 23.9827 16.0515C23.9843 16.0101 23.986 15.9672 23.9878 15.9227C23.9963 15.7162 24.0062 15.4709 24.0062 15.1314C24.0062 14.1216 23.6335 12.8229 22.8312 11.7888C22.0447 10.775 20.8524 10.0191 19.1604 10.0191C17.4681 10.0191 16.2757 10.775 15.4894 11.7887V11.7887Z" fill="#292929"/>
<path fill-rule="evenodd" clip-rule="evenodd" d="M16.7338 24.4322C17.0006 24.1939 17.4101 24.217 17.6484 24.4839C18.5169 25.4561 19.8099 25.4471 20.6728 24.4833C20.9113 24.2167 21.3208 24.1941 21.5874 24.4327C21.8539 24.6714 21.8765 25.0808 21.6379 25.3473C20.2652 26.8807 18.0708 26.9014 16.6822 25.3468C16.4439 25.08 16.467 24.6706 16.7338 24.4322V24.4322Z" fill="#292929"/>
</svg>
