<svg width="21" height="21" viewBox="0 0 21 21" fill="none" xmlns="http://www.w3.org/2000/svg">
<path d="M20.1797 9.67969H0.820312C0.367254 9.67969 0 10.0469 0 10.5C0 10.9531 0.367254 11.3203 0.820312 11.3203H20.1797C20.6327 11.3203 21 10.9531 21 10.5C21 10.0469 20.6327 9.67969 20.1797 9.67969Z" fill="#777777"/>
<path d="M20.1797 3.11719H0.820312C0.367254 3.11719 0 3.484 44 0 3.9375C0 4.39056 0.367254 4.75781 0.820312 4.75781H20.1797C20.6327 4.75781 21 4.39056 21 3.9375C21 3.48444 20.6327 3.11719 20.1797 3.11719Z" fill="#777777"/>
<path d="M20.1797 16.2422H0.820312C0.367254 16.2422 0 16.6094 0 17.0625C0 17.5156 0.367254 17.8828 0.820312 17.8828H20.1797C20.6327 17.8828 21 17.5156 21 17.0625C21 16.6094 20.6327 16.2422 20.1797 16.2422Z" fill="#777777"/>
</svg>
